HIERARCHY
ROOT Hips
{
  OFFSET 0 0 0
  CHANNELS 6 Xposition Yposition Zposition Zrotation Yrotation Xrotation
  JOINT LeftThigh
  {
    OFFSET 8.409438 0 -5.917753
    CHANNELS 3 Zrotation Yrotation Xrotation
    JOINT LeftLeg
    {
      OFFSET 0 0 -42.358652
      CHANNELS 3 Zrotation Yrotation Xrotation
      JOINT LeftFoot
      {
        OFFSET 0 0 -39.357303
        CHANNELS 3 Zrotation Yrotation Xrotation
      }
    }
  }
  JOINT RightThigh
  {
    OFFSET -8.409438 0 -5.917753
    CHANNELS 3 Zrotation Yrotation Xrotation
    JOINT RightLeg
    {
      OFFSET 0 0 -42.358652
      CHANNELS 3 Zrotation Yrotation Xrotation
      JOINT RightFoot
      {
        OFFSET 0 0 -39.357303
        CHANNELS 3 Zrotation Yrotation Xrotation
      }
    }
  }
  JOINT SpineLow
  {
    OFFSET 0 0 4.719101
    CHANNELS 3 Zrotation Yrotation Xrotation
    JOINT SpineMid
    {
      OFFSET 0 0 12.899191
      CHANNELS 3 Zrotation Yrotation Xrotation
      JOINT Chest
      {
        OFFSET 0 0 12.899191
        CHANNELS 3 Zrotation Yrotation Xrotation
        JOINT LeftShoulder
        {
          OFFSET 7.550562 1.41573 9.438202
          CHANNELS 3 Zrotation Yrotation Xrotation
          JOINT LeftArm
          {
            OFFSET 9.155056 0 4.247191
            CHANNELS 3 Zrotation Yrotation Xrotation
            JOINT LeftForearm
            {
              OFFSET 0 0 25.771955
              CHANNELS 3 Zrotation Yrotation Xrotation
              JOINT LeftHand
              {
                OFFSET 0 0 25.197169
                CHANNELS 3 Zrotation Yrotation Xrotation
              }
            }
          }
        }
        JOINT RightShoulder
        {
          OFFSET -7.550562 1.41573 9.438202
          CHANNELS 3 Zrotation Yrotation Xrotation
          JOINT RightArm
          {
            OFFSET -9.155056 0 4.247191
            CHANNELS 3 Zrotation Yrotation Xrotation
            JOINT RightForearm
            {
              OFFSET 0 0 -25.771955
              CHANNELS 3 Zrotation Yrotation Xrotation
              JOINT RightHand
              {
                OFFSET 0 0 -25.197169
                CHANNELS 3 Zrotation Yrotation Xrotation
              }
            }
          }
        }
        JOINT Neck
        {
          OFFSET 0 0 15.101124
          CHANNELS 3 Zrotation Yrotation Xrotation
          JOINT Head
          {
            OFFSET 0 0 11.325843
            CHANNELS 3 Zrotation Yrotation Xrotation
            End Site
            {
              OFFSET 0 0 14.157303
            }
          }
        }
      }
    }
  }
}
MOTION
Frames: 17
Frame Time: 0.01
0.0  101.685394  0.0  -0.853911  31.181233  -103.557628  13.177615  -20.835946  0.865011  -13.965449  9.810997  23.9701  3.418486  2.948446  4.926862  -22.946696  18.10554  5.061857  -6.649903  2.787494  20.842318  4.606718  6.755456  -1.028174  -0.937124  0.867885  1.312524  -2.514593  2.421932  3.554858  -2.514593  2.421932  3.554858  0.344697  18.185119  32.334249  123.86136  74.746095  -149.796366  -48.56498  18.648759  78.130962  83.412863  16.679999  13.52272  17.50617  -21.681139  17.149912  127.916461  62.604694  50.767173  -17.190957  -30.069466  -115.492027  83.707025  -0.639869  46.639712  1.524288  -5.089777  -1.083121  1.133426  -3.820074  -0.799088  
0.0  101.685394  0.0  -0.86582  31.595735  -103.551399  12.94398  -20.888115  0.643067  -14.082375  10.039166  24.261356  3.384007  2.982386  4.906445  -23.0429  18.073226  5.055694  -6.977177  2.948564  21.075843  4.590443  6.811393  -1.055629  -0.962547  0.907887  1.310842  -2.58208  2.532511  3.547854  -2.58208  2.532511  3.547854  0.693548  18.196729  32.122994  125.046624  74.321268  -148.809324  -47.927277  18.860761  78.475875  82.625298  16.873026  11.935018  17.768103  -21.572185  17.14015  127.145073  62.827934  49.770182  -16.855883  -29.69496  -115.524587  82.862861  -1.466247  47.696157  1.423629  -5.230566  -0.973966  1.058625  -3.925228  -0.717757  
0.0  101.685394  0.0  -0.864704  32.104515  -103.497201  12.583325  -20.866948  0.269519  -14.206658  10.261202  24.632522  3.394891  3.050294  4.925449  -23.31515  18.085534  4.913614  -7.419057  3.12493  21.374708  4.765108  6.947706  -1.067473  -0.997179  0.952581  1.303945  -2.674731  2.656185  3.525962  -2.674731  2.656185  3.525962  0.88681  18.17888  31.914075  125.677376  74.231456  -148.330843  -47.482809  18.905627  78.666741  81.867417  16.720215  10.117263  17.934767  -21.507064  17.231034  126.544902  62.969934  49.002832  -16.894938  -28.646921  -115.361943  81.881038  -2.305605  48.803032  1.309872  -5.370437  -0.876248  0.973966  -4.029736  -0.645167  
0.0  101.685394  0.0  -0.913036  32.449079  -103.515121  12.381353  -20.928456  -0.073297  -14.249517  10.509175  25.151752  3.307058  3.128718  4.893006  -23.395719  18.034644  4.823388  -7.595865  3.265315  21.794575  4.714326  7.036589  -1.124713  -1.012291  0.988209  1.304997  -2.714175  2.754362  3.526858  -2.714176  2.754362  3.526858  1.104568  18.13014  31.72235  125.371255  74.38442  -148.686623  -47.138785  18.526598  78.977448  80.999389  16.505926  8.45464  17.945251  -21.420667  17.401861  126.123555  63.051066  48.244032  -17.620871  -27.297412  -114.634946  80.8455  -3.050477  49.423579  1.199007  -5.489787  -0.79511  0.891406  -4.118925  -0.585078  
0.0  101.685394  0.0  -0.978527  32.85212  -103.541118  11.951661  -20.958544  -0.53341  -14.493149  10.803585  25.515061  3.551889  3.330721  5.127889  -23.647431  18.040752  4.637377  -7.735759  3.395193  22.313925  4.751905  7.150356  -1.190229  -1.038881  1.024867  1.308018  -2.784868  2.856044  3.532558  -2.784868  2.856044  3.532558  1.177343  18.052884  31.509804  124.536484  74.630837  -149.459882  -47.028778  17.701844  79.231373  80.225101  16.244946  7.312488  17.91339  -21.394867  17.597962  125.868859  63.057596  47.601762  -18.639422  -25.980861  -113.742196  80.681821  -4.224502  50.134909  1.091428  -5.599483  -0.727422  0.811236  -4.200933  -0.535105  
0.0  101.685394  0.0  -1.087228  33.138482  -103.649877  11.588652  -21.073183  -0.904251  -14.516571  11.172585  26.193168  3.60283  3.447465  5.09452  -23.716348  17.99649  4.514145  -7.633937  3.465774  22.919172  4.583028  7.254371  -1.252065  -1.047535  1.053597  1.324935  -2.806302  2.935699  3.577303  -2.806302  2.935699  3.577303  1.22255  17.973244  31.313625  123.713947  74.971489  -150.248264  -46.92093  16.835319  79.45138  79.541211  15.946585  6.774002  17.789662  -21.386095  17.766134  125.667336  63.054004  46.933957  -19.517753  -24.706311  -112.93322  79.895068  -4.828687  50.311943  0.979582  -5.699311  -0.687746  0.727648  -4.275603  -0.506223  
0.0  101.685394  0.0  -1.196541  33.417692  -103.753775  11.177135  -21.165251  -1.331066  -14.590372  11.603594  26.879987  3.843117  3.584445  5.142399  -23.853258  17.99512  4.311245  -7.389129  3.428009  23.576856  4.310209  7.388683  -1.279212  -1.055633  1.081725  1.349018  -2.825877  3.01399  3.641683  -2.825877  3.01399  3.641683  1.073675  17.87261  31.061722  122.982778  75.376535  -150.794979  -46.969607  15.719146  79.525781  78.716379  15.624176  6.740005  17.700004  -21.436093  17.895972  125.462138  63.10272  46.381625  -20.267427  -23.202239  -112.161887  79.252673  -5.517305  50.766942  0.826766  -5.775454  -0.68789  0.613029  -4.332536  -0.507644  
0.0  101.685394  0.0  -1.312135  33.6068  -103.854664  10.881347  -21.259669  -1.73254  -14.636673  12.018233  27.61492  4.06325  3.712818  5.117577  -23.842505  17.929793  4.082574  -7.258323  3.408276  24.262064  4.065701  7.571885  -1.272367  -1.076957  1.095183  1.367565  -2.882604  3.052717  3.690871  -2.882603  3.052717  3.690871  1.102205  17.909285  30.912198  122.879855  75.834881  -150.936505  -46.791193  14.659615  79.685327  77.556777  15.135918  7.06379  17.687113  -21.436635  18.08271  125.211676  63.200623  45.822073  -20.806903  -21.820355  -111.3916  77.765009  -5.725303  50.688093  0.791436  -5.820301  -0.681777  0.586554  -4.366123  -0.503333  
0.0  101.685394  0.0  -1.390535  33.842414  -103.909517  10.740277  -21.428696  -2.189659  -14.77672  12.541365  28.358521  4.189536  3.853508  5.026114  -23.908312  17.897678  3.747269  -7.171425  3.39154  25.031048  3.791658  7.737155  -1.296829  -1.122144  1.109412  1.385784  -3.004536  3.0949  3.737977  -3.004536  3.0949  3.737976  0.989879  17.964442  30.728132  123.377805  76.275151  -150.565471  -46.620438  13.661218  79.797038  76.172941  14.469733  7.487629  17.844994  -21.4828  18.268814  124.985367  63.426214  45.615472  -20.942685  -20.896913  -110.799153  76.585199  -5.977189  50.783275  0.733948  -5.811887  -0.708227  0.543233  -4.359779  -0.523714  
0.0  101.685394  0.0  -1.513464  33.866797  -104.043264  10.674386  -21.698899  -2.572098  -14.543049  12.958503  29.307798  4.183633  4.017512  4.856242  -23.835057  17.822506  3.36517  -7.188639  3.420653  25.908143  3.771082  7.953694  -1.286379  -1.149892  1.111971  1.421183  -3.07858  3.105067  3.833351  -3.07858  3.105067  3.83335  1.029333  18.10377  30.604565  123.913027  76.816722  -150.207867  -46.376676  13.159683  80.024752  75.047944  13.806021  7.863379  17.992134  -21.493976  18.38618  124.740371  63.715453  45.27659  -20.827055  -20.285274  -110.189289  75.400538  -6.04443  50.882594  0.793293  -5.841683  -0.759835  0.587169  -4.382264  -0.561777  
0.0  101.685394  0.0  -1.60307  33.936364  -104.139684  10.566201  -22.009625  -2.9682  -14.179982  13.381389  30.351336  4.023007  4.23434  4.613886  -23.74069  17.838226  2.915748  -7.355292  3.423068  26.858678  3.808263  8.151533  -1.279426  -1.173468  1.123186  1.461392  -3.140486  3.138935  3.941687  -3.140486  3.138935  3.941687  0.818527  18.20991  30.490283  124.675782  77.377037  -149.56775  -46.323341  13.086348  80.199875  74.546576  13.381272  8.292486  18.336195  -21.684826  18.478977  124.621687  64.156238  45.398385  -20.647047  -20.002191  -109.58016  74.440644  -6.203969  51.110575  0.611161  -5.794414  -0.858463  0.449816  -4.346683  -0.637486  
0.0  101.685394  0.0  -1.806109  33.789454  -104.302365  10.926648  -22.491689  -3.399136  -13.850576  13.663673  31.391407  3.686771  4.463029  4.354304  -23.472979  17.754211  2.52107  -7.541983  3.42941  27.826698  3.997256  8.327209  -1.258238  -1.16303  1.11907  1.502744  -3.110192  3.12899  4.055451  -3.110192  3.12899  4.055451  0.644399  18.289977  30.486769  125.592409  77.997895  -148.854572  -46.278926  13.470397  80.482873  74.499593  13.321357  8.801781  18.293007  -21.787292  18.49648  124.737073  64.490781  45.312208  -20.54399  -19.89248  -108.928442  73.638833  -6.557909  51.41995  0.586973  -5.888157  -0.933807  0.430817  -4.417031  -0.694065  
0.0  101.685394  0.0  -2.048923  33.566312  -104.515506  11.589439  -22.958938  -3.892546  -13.789087  13.945132  32.443784  3.169772  4.661621  3.954901  -23.163887  17.617876  2.151049  -7.675004  3.462614  28.827383  4.201209  8.507537  -1.240987  -1.123313  1.111088  1.559241  -2.999369  3.107294  4.212193  -2.999369  3.107294  4.212193  0.195643  18.33776  30.441026  125.887302  78.545301  -148.400934  -46.486492  13.615755  80.57791  74.683061  13.636216  9.358766  18.29168  -21.991387  18.412756  124.884948  64.830425  45.335074  -20.543511  -19.945114  -108.243091  73.080588  -7.053268  51.688596  0.402801  -5.980649  -1.044933  0.291568  -4.486192  -0.779033  
0.0  101.685394  0.0  -2.355965  33.23421  -104.827849  12.493196  -23.51822  -4.321277  -13.924871  14.104644  33.364204  2.862602  4.901988  3.658251  -22.704215  17.450193  1.846273  -7.79797  3.418915  29.87319  4.356801  8.658793  -1.226722  -1.075793  1.088569  1.630394  -2.867497  3.045813  4.409928  -2.867498  3.045813  4.409929  -0.228533  18.402451  30.401189  126.642582  79.082809  -147.806966  -46.622927  14.262262  80.821673  75.043135  14.213142  9.881119  18.13958  -22.093409  18.234331  124.956422  65.054972  45.05696  -20.544304  -20.195714  -107.652208  72.876267  -7.547257  51.730297  0.281821  -6.119894  -1.165087  0.199459  -4.590478  -0.87015  
0.0  101.685394  0.0  -2.680914  32.836662  -105.192074  13.271989  -23.941191  -4.630003  -14.038843  14.106763  34.19102  2.740179  5.117299  3.469949  -22.266728  17.263077  1.575836  -7.100282  3.309603  31.065048  3.844381  8.435667  -1.354406  -1.042965  1.056521  1.707565  -2.776299  2.959282  4.623717  -2.776299  2.959282  4.623718  -0.659251  18.499278  30.354859  127.931867  79.540257  -146.69427  -46.779831  15.110921  81.017299  75.478842  14.962924  10.19788  18.182571  -22.186354  18.019368  124.837782  65.19209  44.631271  -20.576183  -20.551479  -107.156291  73.005453  -7.952477  51.417861  0.212654  -6.232726  -1.291649  0.146115  -4.675018  -0.965603  
0.0  101.685394  0.0  -2.994307  32.283023  -105.424482  14.035384  -24.251286  -4.938258  -14.10999  13.925382  34.849611  2.769955  5.30561  3.394529  -21.98373  16.988411  1.07578  -7.04715  3.179608  32.102896  3.977508  8.590606  -1.324992  -1.009376  1.013534  1.765822  -2.684845  2.841853  4.786123  -2.684845  2.841853  4.786123  -1.086103  18.61594  30.246406  130.222098  79.915038  -144.755355  -46.856022  16.322475  81.222312  75.863285  15.732316  10.276729  18.21872  -22.204919  17.750661  124.53313  65.249961  44.018156  -20.569873  -20.971916  -106.853743  73.32815  -8.299647  50.691188  0.211153  -6.337335  -1.43202  0.1433  -4.753527  -1.07072  
0.0  101.685394  0.0  -3.254004  31.577061  -105.431367  14.981491  -24.326989  -5.212547  -14.408769  13.457853  35.220787  2.937921  5.486505  3.437986  -22.011567  16.651598  0.159629  -6.82961  3.03064  33.213359  4.179245  8.758483  -1.271642  -0.97335  0.969013  1.788556  -2.588553  2.718535  4.851427  -2.588553  2.718535  4.851427  -1.575182  18.712847  30.054907  132.89495  80.157262  -142.654571  -46.920436  17.791618  81.464303  76.11375  16.330193  10.198759  18.321869  -22.264853  17.523755  124.571398  64.823072  43.262772  -21.129161  -20.957  -106.249645  73.773742  -8.587597  49.525746  0.24283  -6.434846  -1.569263  0.165347  -4.826796  -1.17314  
